<?xml version="1.0" encoding="UTF-8" standalone="no"?>
<svg xmlns="http://www.w3.org/2000/svg"
   height="100"
   viewBox="0 0 50 50"
   width="100">
  <path
     d="M 41.666667,16.666667 H 35.8125 c -0.9375,-1.625 -2.229167,-3.020834 -3.791667,-4.083334 L 35.416667,9.1875 32.479167,6.25 27.958333,10.770833 C 27,10.541667 26.020833,10.416667 25,10.416667 c -1.020833,0 -2,0.125 -2.9375,0.354166 L 17.520833,6.25 l -2.9375,2.9375 3.375,3.395833 C 16.416667,13.645833 15.125,15.041667 14.1875,16.666667 H 8.3333333 v 4.166666 H 12.6875 c -0.104167,0.6875 -0.1875,1.375 -0.1875,2.083334 V 25 H 8.3333333 v 4.166667 H 12.5 V 31.25 c 0,0.708333 0.08333,1.395833 0.1875,2.083333 H 8.3333333 V 37.5 H 14.1875 c 2.166667,3.729167 6.1875,6.25 10.8125,6.25 4.625,0 8.645833,-2.520833 10.8125,-6.25 h 5.854167 V 33.333333 H 37.3125 C 37.416667,32.645833 37.5,31.958333 37.5,31.25 v -2.083333 h 4.166667 V 25 H 37.5 v -2.083333 c 0,-0.708334 -0.08333,-1.395834 -0.1875,-2.083334 h 4.354167 z m -12.5,16.666666 h -8.333334 v -4.166666 h 8.333334 z m 0,-8.333333 h -8.333334 v -4.166667 h 8.333334 z"
     style="stroke-width:2.08333349;fill:0c0c0d" />
</svg>
