<?xml version="1.0" encoding="UTF-8" standalone="no"?>
<svg
   xmlns:dc="http://purl.org/dc/elements/1.1/"
   xmlns:cc="http://creativecommons.org/ns#"
   xmlns:rdf="http://www.w3.org/1999/02/22-rdf-syntax-ns#"
   xmlns:svg="http://www.w3.org/2000/svg"
   xmlns="http://www.w3.org/2000/svg"
   id="svg2"
   xml:space="preserve"
   enable-background="new 0 0 100 100"
   viewBox="0 0 100 100"
   y="0px"
   x="0px"
   version="1.1"><metadata
     id="metadata10"><rdf:RDF><cc:Work
         rdf:about=""><dc:format>image/svg+xml</dc:format><dc:type
           rdf:resource="http://purl.org/dc/dcmitype/StillImage" /><dc:title></dc:title></cc:Work></rdf:RDF></metadata><defs
     id="defs8" /><path
     id="path4"
     d="M94.313,41.423l-11.411-2.571c-0.293-0.778-0.597-1.549-0.941-2.301l6.248-9.883  c0.96-1.515,0.706-3.795-0.568-5.062l-8.104-8.113c-1.275-1.266-3.55-1.518-5.069-0.56l-9.876,6.245  c-0.754-0.345-1.523-0.654-2.298-0.949L59.718,6.816c-0.394-1.748-2.185-3.181-3.982-3.181H44.271c-1.8,0-3.59,1.433-3.982,3.181  l-2.572,11.412c-0.779,0.295-1.545,0.604-2.298,0.947l-9.878-6.251c-1.522-0.958-3.799-0.699-5.07,0.569l-8.11,8.111  c-1.267,1.266-1.519,3.544-0.559,5.062l6.244,9.882c-0.345,0.751-0.652,1.52-0.941,2.297L5.685,41.414  C3.934,41.81,2.5,43.604,2.502,45.398L2.5,56.863c0.002,1.798,1.433,3.586,3.185,3.979l11.418,2.579  c0.29,0.771,0.601,1.538,0.941,2.284l-6.255,9.89c-0.96,1.52-0.705,3.8,0.568,5.07l8.106,8.105c1.273,1.273,3.551,1.523,5.068,0.562  l9.887-6.247c0.749,0.345,1.517,0.649,2.289,0.938l2.57,11.425c0.399,1.749,2.192,3.186,3.989,3.186h11.462  c1.8,0,3.592-1.437,3.976-3.186l2.581-11.417c0.772-0.288,1.545-0.597,2.294-0.941l9.878,6.255c1.521,0.959,3.802,0.699,5.077-0.57  l8.102-8.109c1.274-1.269,1.524-3.543,0.562-5.064l-6.24-9.882c0.345-0.75,0.652-1.52,0.94-2.295l11.416-2.57  c1.749-0.396,3.187-2.189,3.187-3.987V45.406C97.5,43.605,96.062,41.822,94.313,41.423z M50.002,62.781  c-6.434,0-11.65-5.216-11.65-11.65c0-6.436,5.216-11.652,11.65-11.652c6.438,0,11.648,5.216,11.648,11.652  C61.65,57.565,56.44,62.781,50.002,62.781z"
     fill="#000000" /></svg>