<?xml version="1.0" encoding="UTF-8"?>
<svg xmlns="http://www.w3.org/2000/svg" width="48" height="48">
  <path d="m 38.86,25.96 c 0.08,-0.64 0.14,-1.28 0.14,-1.96 0,-0.68 -0.06,-1.32
           -0.14,-1.96 l 4.22,-3.3 c 0.38,-0.3 0.48,-0.84 0.24,-1.28 L
           39.32,10.54 C 39.08,10.1 38.54,9.94 38.1,10.1 l -4.98,2 C 32.08,11.3
           30.96,10.64 29.74,10.14 l -0.76,-5.3 C 28.92,4.36 28.5,4 28,4 L 20,4
           C 19.5,4 19.08,4.36 19.02,4.84 l -0.76,5.3 c -1.22,0.5 -2.34,1.18
           -3.38,1.96 l -4.98,-2 c -0.46,-0.18 -0.98,0 -1.22,0.44 l -4,6.92 c
           -0.26,0.44 -0.14,0.98 0.24,1.28 l 4.22,3.3 c -0.08,0.64 -0.14,1.3
           -0.14,1.96 0,0.66 0.06,1.32 0.14,1.96 l -4.22,3.3 c -0.38,0.3
           -0.48,0.84 -0.24,1.28 l 4,6.92 c 0.24,0.44 0.78,0.6 1.22,0.44 l
           4.98,-2 c 1.04,0.8 2.16,1.46 3.38,1.96 l 0.76,5.3 c 0.06,0.48
           0.48,0.84 0.98,0.84 l 8,0 c 0.5,0 0.92,-0.36 0.98,-0.84 l 0.76,-5.3 c
           1.22,-0.5 2.34,-1.18 3.38,-1.96 l 4.98,2 c 0.46,0.18 0.98,0
           1.22,-0.44 l 4,-6.92 C 43.56,30.1 43.46,29.56 43.08,29.26 L
           38.86,25.96 Z M 24,31 c -3.86,0 -7,-3.14 -7,-7 0,-3.86 3.14,-7 7,-7
           3.86,0 7,3.14 7,7 0,3.86 -3.14,7 -7,7 z" />
</svg>
