<?xml version="1.0" encoding="UTF-8"?>
<svg xmlns="http://www.w3.org/2000/svg" width="48" height="48">
  <path d="m 24,2 c -12.16,0 -22,9.84 -22,22 0,9.74 6.3,17.96 15.04,20.87
           1.1,0.19 1.51,-0.47 1.51,-1.05 0,-0.52 -0.03,-2.26 -0.03,-4.1
           -5.53,1.02 -6.96,-1.35 -7.4,-2.59 -0.25,-0.63 -1.32,-2.59 -2.26,-3.11
           -0.77,-0.41 -1.87,-1.43 -0.03,-1.46 1.73,-0.03 2.97,1.6 3.38,2.26
           1.98,3.33 5.14,2.39 6.41,1.82 0.19,-1.43 0.77,-2.39 1.4,-2.94
           -4.9,-0.55 -10.01,-2.45 -10.01,-10.86 0,-2.39 0.85,-4.37 2.26,-5.91
           -0.22,-0.55 -0.99,-2.81 0.22,-5.83 0,0 1.84,-0.58 6.05,2.26
           1.76,-0.5 3.63,-0.74 5.5,-0.74 1.87,0 3.74,0.25 5.5,0.74 4.2,-2.86
           6.05,-2.26 6.05,-2.26 1.21,3.03 0.44,5.28 0.22,5.83 1.4,1.54
           2.26,3.49 2.26,5.91 0,8.44 -5.14,10.31 -10.04,10.86 0.8,0.69
           1.49,2.01 1.49,4.07 0,2.94 -0.03,5.31 -0.03,6.05 0,0.58 0.41,1.27
           1.51,1.05 A 22.04,22.04 0 0 0 46,24 C 46,11.86 36.155,2 24,2 Z"
        fill="white" />
</svg>
