<?xml version="1.0" encoding="UTF-8"?>
<svg xmlns="http://www.w3.org/2000/svg" width="100" height="100">
  <path d="M 50.003694,11.000005 C 72.09154,11.000005 90,28.902652 90,50.988211 90,68.6552 78.539864,83.641572 62.644954,88.931596 c -2.001287,0.365762 -2.730587,-0.868987 -2.730587,-1.92945 0,-0.947537 0.03438,-3.463686 0.054,-6.799711 11.126186,2.415488 13.473711,-5.361211 13.473711,-5.361211 1.819574,-4.617425 4.442124,-5.847262 4.442124,-5.847262 3.631787,-2.481774 -0.275025,-2.432687 -0.275025,-2.432687 -4.014862,0.284763 -6.126649,4.121562 -6.126649,4.121562 -3.567937,6.109924 -9.363086,4.344949 -11.641848,3.323749 C 59.477255,71.421724 58.445917,69.6592 57.301618,68.660112 66.183404,67.6512 75.52194,64.219425 75.52194,48.896749 c 0,-4.364587 -1.559287,-7.933811 -4.117987,-10.729798 0.412537,-1.011363 1.7852,-5.076462 -0.390438,-10.582524 0,0 -3.359224,-1.075187 -11.000948,4.099475 -3.189787,-0.886163 -6.612849,-1.330488 -10.013811,-1.345213 -3.396049,0.01475 -6.819124,0.45905 -10.013811,1.345213 -7.636823,-5.174662 -10.988673,-4.099475 -10.988673,-4.099475 -2.183,5.506062 -0.810337,9.571161 -0.3978,10.582524 -2.563612,2.795987 -4.113087,6.365211 -4.113087,10.729798 0,15.361951 9.353274,18.742176 18.264522,19.731451 -1.436499,1.234737 -2.715849,3.674787 -2.715849,7.406036 0,5.344024 0.04912,9.657061 0.04912,10.96791 0,1.070275 -0.719488,2.31485 -2.750237,1.924537 C 21.450323,83.626847 10,68.650287 10,50.988211 10,28.902652 27.910922,11.000005 50.003681,11.000005"
     fill="white" />
</svg>
