<?xml version="1.0" encoding="UTF-8"?>
<svg xmlns="http://www.w3.org/2000/svg" width="48" height="48" fill="#737373">
  <path d="m 40,12 -4.36,0 C 35.86,11.38 36,10.7 36,10 36,6.68 33.32,4 30,4
           27.9,4 26.08,5.08 25,6.7 L 24,8.04 23,6.68 C 21.92,5.08 20.1,4 18,4 c
           -3.32,0 -6,2.68 -6,6 0,0.7 0.14,1.38 0.36,2 L 8,12 C 5.78,12
           4.02,13.78 4.02,16 L 4,38 c 0,2.22 1.78,4 4,4 l 32,0 c 2.22,0 4,-1.78
           4,-4 l 0,-22 c 0,-2.22 -1.78,-4 -4,-4 z M 30,8 c 1.1,0 2,0.9 2,2
           0,1.1 -0.9,2 -2,2 -1.1,0 -2,-0.9 -2,-2 0,-1.1 0.9,-2 2,-2 z M 18,8 c
           1.1,0 2,0.9 2,2 0,1.1 -0.9,2 -2,2 -1.1,0 -2,-0.9 -2,-2 0,-1.1 0.9,-2
           2,-2 z m 22,30 -32,0 0,-4 32,0 0,4 z M 40,28 8,28 8,16 18.16,16
           14,21.66 17.24,24 22,17.52 24,14.8 26,17.52 30.76,24 34,21.66
           29.84,16 40,16 40,28 Z" />
</svg>
