<?xml version="1.0" encoding="UTF-8"?>
<svg xmlns="http://www.w3.org/2000/svg" width="48" height="48">
  <path d="m 41,22 -3,0 0,-8 c 0,-2.2 -1.8,-4 -4,-4 l -8,0 0,-3 C 26,4.24
           23.76,2 21,2 18.24,2 16,4.24 16,7 l 0,3 -8,0 c -2.2,0 -3.98,1.8
           -3.98,4 l 0,7.6 2.98,0 c 2.98,0 5.4,2.42 5.4,5.4 0,2.98 -2.42,5.4
           -5.4,5.4 l -3,0 0,7.6 c 0,2.2 1.8,4 4,4 l 7.6,0 0,-3 c 0,-2.98
           2.42,-5.4 5.4,-5.4 2.98,0 5.4,2.42 5.4,5.4 l 0,3 7.6,0 c 2.2,0 4,-1.8
           4,-4 l 0,-8 3,0 c 2.76,0 5,-2.24 5,-5 0,-2.76 -2.24,-5 -5,-5 z" />
</svg>
