<?xml version="1.0" encoding="UTF-8"?>
<svg xmlns="http://www.w3.org/2000/svg" width="100" height="100">
  <path d="M 50,10 C 30.73238,10 14.18411,23.678873 10.672667,42.516293 c -3.5115056,18.837672 7.005818,37.511586 24.994982,44.377636 0.824957,0.314811 1.750427,-0.09482 2.067072,-0.91526 l 8.981162,-23.27013 c 0.316613,-0.820343 -0.09546,-1.740629 -0.920412,-2.055503 -5.288925,-2.019124 -8.363583,-7.479459 -7.331026,-13.017644 1.032556,-5.538121 5.870061,-9.536985 11.53556,-9.536985 5.665498,0 10.503859,3.998864 11.536383,9.536985 1.032588,5.538185 -2.042102,10.99852 -7.330996,13.017644 -0.824958,0.314811 -1.237026,1.23516 -0.920413,2.055503 l 8.981133,23.27013 c 0.316676,0.8199 1.241514,1.229561 2.06625,0.91526 C 82.321494,80.027879 92.838818,61.353965 89.327343,42.516293 85.8159,23.678873 69.267631,10 50,10 Z"
        fill="#0c0c0d" />
</svg>
