<?xml version="1.0" encoding="UTF-8" standalone="no"?>
<svg
   xmlns="http://www.w3.org/2000/svg"
   height="100"
   viewBox="0 0 50 50"
   width="100">
  <path
     d="m 37.5,33.5 c -1.583333,0 -3,0.625 -4.083333,1.604167 L 18.5625,26.458333 C 18.666667,25.979167 18.75,25.5 18.75,25 c 0,-0.5 -0.08333,-0.979167 -0.1875,-1.458333 l 14.6875,-8.5625 c 1.125,1.041666 2.604167,1.6875 4.25,1.6875 3.458333,0 6.25,-2.791667 6.25,-6.25 0,-3.4583337 -2.791667,-6.2500003 -6.25,-6.2500003 -3.458333,0 -6.25,2.7916666 -6.25,6.2500003 0,0.5 0.08333,0.979166 0.1875,1.458333 L 16.75,20.4375 C 15.625,19.395833 14.145833,18.75 12.5,18.75 c -3.4583333,0 -6.25,2.791667 -6.25,6.25 0,3.458333 2.7916667,6.25 6.25,6.25 1.645833,0 3.125,-0.645833 4.25,-1.6875 l 14.833333,8.666667 c -0.104166,0.4375 -0.166666,0.895833 -0.166666,1.354166 0,3.354167 2.729166,6.083334 6.083333,6.083334 3.354167,0 6.083333,-2.729167 6.083333,-6.083334 C 43.583333,36.229167 40.854167,33.5 37.5,33.5 Z"
     style="stroke-width:2.08333349;fill:#0c0c0d" />
</svg>
