<?xml version="1.0" encoding="UTF-8" standalone="no"?>
<!-- Created with Inkscape (http://www.inkscape.org/) -->

<svg
   xmlns:dc="http://purl.org/dc/elements/1.1/"
   xmlns:cc="http://creativecommons.org/ns#"
   xmlns:rdf="http://www.w3.org/1999/02/22-rdf-syntax-ns#"
   xmlns:svg="http://www.w3.org/2000/svg"
   xmlns="http://www.w3.org/2000/svg"
   version="1.1"
   width="100"
   height="100"
   id="svg2">
  <metadata
     id="metadata12">
    <rdf:RDF>
      <cc:Work
         rdf:about="">
        <dc:format>image/svg+xml</dc:format>
        <dc:type
           rdf:resource="http://purl.org/dc/dcmitype/StillImage" />
        <dc:title></dc:title>
      </cc:Work>
    </rdf:RDF>
  </metadata>
  <defs
     id="defs4" />
  <g
     transform="matrix(0.07804878,0,0,-0.07804878,8.5968944,30.001915)"
     id="g6">
    <path
       d="m 529.97729,244.74183 c -283,0 -511.999999,-229.000004 -511.999999,-512 0,-226 146.999999,-418 349.999999,-486 26,-5 35,11 35,25 0,12 0,53 -1,95 -142,-31 -172,60 -172,60 -23,59 -57,75 -57,75 -47,32 4,31 4,31 51,-4 78,-53 78,-53 46,-78 120,-56 149,-43 5,33 18,56 33,68 -114,13 -233,57 -233,253 0,56 20,102 53,137 -5,12.999996 -23,64.999996 5,135.999996 0,0 43,14 141,-53 41,11 85,16.9999996 128,16.9999996 44,0 87,-5.9999996 128,-16.9999996 98,66 141,53 141,53 28,-71 10,-123 5,-135.999996 33,-36 53,-81 53,-137 0,-197 -120,-240 -234,-253 18,-16 35,-47 35,-95 0,-68 -1,-124 -1,-141 0,-14 9,-30 35,-25 203,68 350.00001,260 350.00001,486 0,282.999996 -229.00001,512 -512.00001,512 z"
       id="path8" />
  </g>
</svg>
